# xmcd CD database file
#
# Track frame offsets:
#	150
#	11115
#	25315
#	42568
#	55825
#	71203
#	83240
#	96658
#	108748
#	119248
#	131543
#	146265
#	160903
#	173215
#	185190
#	198340
#	213070
#	219085
#	230465
#	242605
#	257260
#	267053
#	280738
#	293098
#	306955
#
# Disc length: 4263 seconds
#
# Revision: 2
# Processed by: cddbd v1.5.1PL2 Copyright (c) Steve Scherf et al.
# Submitted via: CDex 1.51
#
DISCID=7810a519
DTITLE=堀江美都子 - テレビまんが主題歌のあゆみ DISC-2
DYEAR=1987
DGENRE=アニメ
TTITLE0=堀江美都子、ヤング・フレッシュ、こおろぎ'73/ぼくらきょうだいてんとう虫
TTITLE1=堀江美都子、こおろぎ'73/帰ろうよランララン
TTITLE2=ビューナスＡの歌
TTITLE3=ジュンの歌
TTITLE4=ささきいさお、堀江美都子、こおろぎ'73/進め！ゴレンジャー
TTITLE5=水木一郎、堀江美都子/きょうもたたかうストロンガー
TTITLE6=堀江美都子、コロムビアゆりかご会/ラ・セーヌの星
TTITLE7=堀江美都子、コロムビアゆりかご会/私はシモーヌ
TTITLE8=堀江美都子、コロムビアゆりかご会/シンドバットのぼうけん
TTITLE9=堀江美都子、コロムビアゆりかご会/シンドバットのうた
TTITLE10=ペペロの冒険
TTITLE11=堀江美都子、ムーンドロップス/風よつたえて
TTITLE12=堀江美都子、コロムビアゆりかご会/クムクムのうた
TTITLE13=堀江美都子、岸龍也、コロムビアゆりかご会/サウルスくん
TTITLE14=堀江美都子、こおろぎ'73、コロムビアゆりかご会/ほらハックルベリィ・フィン
TTITLE15=堀江美都子、こおろぎ'73、コロムビアゆりかご会/河のうた
TTITLE16=堀江美都子、こおろぎ'73、コロムビアゆりかご会/くだものやさいへんちくりん
TTITLE17=堀江美都子、コロムビアゆりかご会/猫目小僧
TTITLE18=みろよ！この目を
TTITLE19=水木一郎、堀江美都子、コロムビアゆりかご会/斗え忍者キャプター
TTITLE20=水木一郎、堀江美都子、こおろぎ'73/大空のキャプター
TTITLE21=堀江美都子、ヤング・フレッシュ/ぐるぐるメダマンおばけだぞ
TTITLE22=堀江美都子、ヤング・フレッシュ/みんなあつまれ！メダマンおどり
TTITLE23=水木一郎、堀江美都子、こおろぎ'73/たたかえ！ガ・キーン
TTITLE24=水木一郎、堀江美都子/猛と舞のうた
EXTD=YEAR: 1987
EXTT0=
EXTT1=
EXTT2=
EXTT3=
EXTT4=
EXTT5=
EXTT6=
EXTT7=
EXTT8=
EXTT9=
EXTT10=
EXTT11=
EXTT12=
EXTT13=
EXTT14=
EXTT15=
EXTT16=
EXTT17=
EXTT18=
EXTT19=
EXTT20=
EXTT21=
EXTT22=
EXTT23=
EXTT24=
PLAYORDER=
